<svg xmlns="http://www.w3.org/2000/svg" viewBox="0 0 800 500" width="100%" height="100%">
  <rect width="100%" height="100%" fill="#111827"/>

  <g transform="translate(400, 260)">
    <path d="M -150,0 A 150,150 0 0,1 150,0" fill="none" stroke="#374151" stroke-width="24" stroke-linecap="round"/>
    
    <path d="M 50,-141.4 A 150,150 0 0,1 150,0" fill="none" stroke="#10B981" stroke-width="24" stroke-linecap="round"/>

    <circle cx="-150" cy="0" r="6" fill="#EF4444" />
    <circle cx="-140.95" cy="-51.3" r="6" fill="#EF4444" />
    <circle cx="-114.9" cy="-96.42" r="6" fill="#F59E0B" />
    <circle cx="-75" cy="-129.9" r="6" fill="#F59E0B" />
    <circle cx="-26.05" cy="-147.72" r="6" fill="#3B82F6" />
    <circle cx="26.05" cy="-147.72" r="6" fill="#3B82F6" />
    <circle cx="75" cy="-129.9" r="6" fill="#10B981" />
    <circle cx="114.9" cy="-96.42" r="6" fill="#10B981" />
    <circle cx="140.95" cy="-51.3" r="6" fill="#10B981" />
    <circle cx="150" cy="0" r="6" fill="#10B981" />

    <g transform="rotate(55)">
      <path d="M -8,0 L 0,-155 L 8,0 Z" fill="#F9FAFB"/>
      <circle cx="0" cy="0" r="16" fill="#F9FAFB"/>
      <circle cx="0" cy="0" r="6" fill="#111827"/>
    </g>
  </g>

  <text x="400" y="440" font-family="system-ui, sans-serif" font-size="52" font-weight="800" fill="#FFFFFF" text-anchor="middle" letter-spacing="2">
    OW<tspan fill="#10B981">Meter</tspan>
  </text>
</svg>
